<?xml version="1.0" encoding="UTF-8" standalone="no"?>
<!-- Created with Inkscape (http://www.inkscape.org/) -->

<svg
   xmlns:dc="http://purl.org/dc/elements/1.1/"
   xmlns:cc="http://creativecommons.org/ns#"
   xmlns:rdf="http://www.w3.org/1999/02/22-rdf-syntax-ns#"
   xmlns:svg="http://www.w3.org/2000/svg"
   xmlns="http://www.w3.org/2000/svg"
   xmlns:sodipodi="http://sodipodi.sourceforge.net/DTD/sodipodi-0.dtd"
   xmlns:inkscape="http://www.inkscape.org/namespaces/inkscape"
   version="1.1"
   id="svg869"
   width="425.34265"
   height="151.05812"
   viewBox="0 0 425.34265 151.05812"
   sodipodi:docname="engie_solid.svg"
   inkscape:version="0.92.3 (2405546, 2018-03-11)">
  <metadata
     id="metadata875">
    <rdf:RDF>
      <cc:Work
         rdf:about="">
        <dc:format>image/svg+xml</dc:format>
        <dc:type
           rdf:resource="http://purl.org/dc/dcmitype/StillImage" />
        <dc:title></dc:title>
      </cc:Work>
    </rdf:RDF>
  </metadata>
  <defs
     id="defs873" />
  <sodipodi:namedview
     pagecolor="#ffffff"
     bordercolor="#666666"
     borderopacity="1"
     objecttolerance="10"
     gridtolerance="10"
     guidetolerance="10"
     inkscape:pageopacity="0"
     inkscape:pageshadow="2"
     inkscape:window-width="1920"
     inkscape:window-height="1002"
     id="namedview871"
     showgrid="false"
     fit-margin-top="0"
     fit-margin-left="0"
     fit-margin-right="0"
     fit-margin-bottom="0"
     inkscape:zoom="1.7014182"
     inkscape:cx="153.56886"
     inkscape:cy="59.466118"
     inkscape:window-x="0"
     inkscape:window-y="0"
     inkscape:window-maximized="1"
     inkscape:current-layer="layer1" />
  <g
     inkscape:groupmode="layer"
     id="layer1"
     inkscape:label="svg"
     style="display:inline"
     transform="translate(-165.27896,-151.28439)">
    <path
       style="fill:#000000;stroke-width:0.16000001"
       d="m 216.26522,302.23546 c -22.71075,-1.35573 -39.63062,-10.33821 -45.0484,-23.91545 -1.60659,-4.02624 -2.0127,-6.32303 -2.00859,-11.36 0.003,-4.18877 0.15083,-5.43319 1.04946,-8.85997 3.60942,-13.76391 16.15397,-23.50487 34.30477,-26.63797 6.90028,-1.1911 15.27953,-1.3779 22.07755,-0.49219 14.33891,1.86822 25.02378,8.5104 29.84045,18.55013 1.64347,3.42561 2.40088,6.70752 2.39745,10.38819 -0.005,5.80555 -1.70465,8.87425 -5.69528,10.28534 l -1.26262,0.44647 -20.16,-0.0547 c -21.82776,-0.0593 -21.80232,-0.0582 -23.57845,-0.92653 -1.22338,-0.59806 -2.3107,-1.74568 -2.74472,-2.89692 -0.4955,-1.31434 -0.40221,-3.29706 0.21443,-4.55741 0.86464,-1.76728 2.57504,-2.87183 5.04211,-3.25613 0.78458,-0.12222 5.4853,-0.35955 10.82663,-0.54662 12.55472,-0.43968 14.88762,-0.58032 16.16322,-0.97431 2.66427,-0.82291 3.77486,-2.96704 2.71552,-5.24262 -0.52332,-1.12411 -2.23045,-2.87719 -3.8565,-3.96026 -3.10923,-2.07099 -6.91773,-3.35689 -12.14224,-4.09974 -1.96346,-0.27919 -9.90269,-0.27087 -11.92,0.0125 -11.04114,1.55078 -18.994,6.64366 -22.10317,14.15451 -1.55594,3.75869 -1.91547,8.37522 -0.94653,12.15366 0.96991,3.7822 3.80664,7.61314 7.69783,10.39573 1.87451,1.34047 5.84478,3.35578 8.39187,4.25973 11.68419,4.14661 27.21499,4.7845 42.32,1.73818 1.72386,-0.34767 2.95045,-0.50197 4.02298,-0.50612 1.45153,-0.006 1.60796,0.0271 2.64,0.55186 1.24144,0.63125 1.95704,1.51088 2.37553,2.92011 0.80664,2.71626 -0.274,5.0976 -3.02475,6.66547 -2.87002,1.63586 -12.40957,4.07058 -19.81742,5.05788 -5.12919,0.68361 -12.95164,0.99491 -17.77113,0.70721 z m 191.63659,0.008 c -16.58175,-0.90291 -29.77672,-5.56401 -37.80117,-13.35318 -1.96915,-1.91143 -3.13883,-3.30925 -4.49415,-5.37074 -5.39996,-8.21361 -6.29667,-19.76827 -2.24715,-28.95637 4.62215,-10.48736 15.84244,-18.46408 31.04068,-22.06742 6.68544,-1.58506 13.30345,-2.20826 21.68,-2.04158 8.34128,0.16596 14.25,0.81112 20.93685,2.28598 6.11089,1.34782 8.37475,2.44282 9.50963,4.59966 0.37027,0.70372 0.43144,1.01276 0.43217,2.1836 0,1.22394 -0.054,1.47528 -0.53372,2.44973 -0.366,0.74347 -0.737,1.2325 -1.17658,1.55093 -1.82746,1.32381 -4.00749,1.54099 -9.00835,0.89746 -15.90365,-2.04652 -28.5934,-1.41415 -38.35218,1.91124 -5.10634,1.74002 -9.0824,4.16376 -12.14821,7.40533 -6.18432,6.53888 -6.81035,15.53231 -1.5715,22.5756 4.66054,6.26579 13.33645,10.69831 23.69798,12.10731 2.58463,0.35148 8.0569,0.3524 10.94869,0.002 7.12603,-0.86379 13.20122,-2.88998 17.85154,-5.95385 1.67513,-1.10368 4.42229,-3.90339 4.98966,-5.08515 0.81544,-1.69844 0.76667,-2.76413 -0.17411,-3.80548 -1.32979,-1.47192 -2.27016,-1.66369 -10.12187,-2.06428 -19.7484,-1.00754 -21.55735,-1.11592 -22.52308,-1.34959 -2.1103,-0.51062 -3.63272,-1.62416 -4.38179,-3.20499 -0.37515,-0.79174 -0.45491,-1.17224 -0.45501,-2.17096 0,-2.88269 1.33815,-4.69949 4.1356,-5.6137 1.04887,-0.34276 1.28308,-0.34979 16.18428,-0.48537 20.5631,-0.18711 28.72795,-0.12055 30,0.24459 2.47009,0.70901 4.26617,1.96104 5.26976,3.67352 1.93494,3.30174 2.00435,9.14378 0.17361,14.61483 -1.46625,4.38184 -4.10694,8.43104 -7.86307,12.05715 -7.34089,7.08679 -18.07339,11.47365 -31.0969,12.71076 -3.21784,0.30566 -9.62734,0.4314 -12.90161,0.2531 z m 136.17821,-0.009 c -14.76393,-0.87571 -27.37174,-5.05645 -35.84594,-11.88648 -1.80433,-1.45427 -4.75732,-4.57022 -6.02121,-6.3535 -4.72333,-6.6644 -6.30635,-15.0485 -4.52319,-23.95587 1.2292,-6.1401 4.25437,-11.74436 8.78882,-16.2817 6.33224,-6.33626 15.86282,-10.74741 26.94915,-12.4732 6.58626,-1.02526 14.70596,-1.14653 21.1137,-0.31531 12.69042,1.64621 22.6671,7.13328 28.0572,15.43115 3.68429,5.67186 5.10296,12.54771 3.70909,17.97688 -0.79483,3.09586 -2.69686,5.09371 -5.68858,5.97514 -1.22232,0.36011 -6.56419,0.4082 -26.05904,0.2346 -17.53725,-0.15616 -16.86083,-0.11891 -18.64,-1.0266 -2.93915,-1.49949 -3.85251,-5.24933 -1.96139,-8.05255 0.97806,-1.44977 2.6751,-2.33405 5.05331,-2.63309 0.67544,-0.0849 5.40408,-0.30048 10.50808,-0.47902 10.80253,-0.37786 14.58147,-0.57776 15.59154,-0.8248 2.51726,-0.61565 3.96333,-2.42573 3.52088,-4.40714 -0.33835,-1.51526 -1.36474,-2.8463 -3.34605,-4.33928 -3.35778,-2.53016 -8.07603,-4.14694 -13.9199,-4.76985 -2.84186,-0.30293 -9.10642,-0.20834 -11.67629,0.1763 -7.79818,1.16715 -14.44439,4.44736 -18.30482,9.03427 -3.12042,3.70762 -4.58845,7.80629 -4.58326,12.7961 0.005,5.06192 1.68945,8.82134 5.64664,12.60445 3.32556,3.17926 8.03117,5.67771 13.9571,7.41056 11.07251,3.23779 25.86287,3.52856 39.27416,0.77209 4.3122,-0.88628 6.35122,-0.67208 7.84775,0.82444 1.49461,1.49462 1.96331,4.11988 1.06369,5.95792 -0.95444,1.95006 -2.97174,3.21326 -7.22638,4.5251 -6.4105,1.97654 -12.85923,3.22909 -19.76506,3.83898 -3.48174,0.3075 -10.33454,0.42936 -13.52,0.24041 z m -272.12318,-1.34213 c -1.67765,-0.6899 -2.64341,-1.67812 -3.35163,-3.42961 l -0.3652,-0.90317 v -27.84 -27.84 l 0.44965,-1.4357 c 0.24729,-0.78963 0.67929,-1.86923 0.96,-2.39912 0.63121,-1.19156 2.29878,-2.90376 3.47035,-3.56318 3.38922,-1.90768 8.10163,-1.86723 11.33658,0.0973 0.52595,0.31939 9.83192,8.14072 20.67995,17.38072 10.84803,9.24 20.08814,17.07418 20.53358,17.40928 1.24284,0.93499 3.15431,1.83075 4.18017,1.95893 2.0887,0.26096 3.65902,-0.83045 4.45961,-3.09955 0.13213,-0.37447 0.39045,-1.77612 0.57405,-3.11476 0.7971,-5.81148 3.51714,-24.31422 3.75661,-25.5539 0.34422,-1.78198 1.27747,-3.76645 2.20963,-4.69861 2.95275,-2.95275 8.25355,-2.16456 10.11237,1.50363 0.90365,1.78327 0.87166,0.70388 0.87467,29.51917 0.002,16.93275 -0.0558,27.03117 -0.1587,27.85211 -0.34696,2.76709 -1.1016,4.62874 -2.47968,6.11722 -1.60768,1.7365 -3.48519,2.42797 -6.58192,2.42411 -2.16714,-0.003 -3.47655,-0.25883 -4.81856,-0.94257 -1.4622,-0.74498 -2.13015,-1.28847 -7.10076,-5.77775 -33.71446,-30.44968 -34.58235,-31.20934 -37.04753,-32.42769 -2.60431,-1.28712 -5.39717,-0.66869 -6.77224,1.4996 -0.9998,1.57649 -0.95474,1.35243 -3.90788,19.43084 -1.35044,8.26711 -2.28544,13.55658 -2.49558,14.11828 -1.02691,2.74467 -3.05634,4.10568 -6.11037,4.09787 -1.18966,-0.003 -1.6671,-0.0791 -2.40717,-0.38343 z m 204.24894,0.16309 c -2.35706,-0.76456 -3.98123,-2.75493 -4.68275,-5.73848 -0.64703,-2.75177 -2.38212,-22.95099 -2.87567,-33.47739 -0.0908,-1.936 -0.2055,-4.24514 -0.25497,-5.13142 -0.0783,-1.40226 -0.0523,-1.65794 0.20019,-1.96973 0.26467,-0.32685 1.12621,-0.49339 9.8088,-1.89613 5.97058,-0.96459 9.68174,-1.49682 9.95621,-1.42782 0.29256,0.0735 0.47249,0.24915 0.54297,0.52998 0.32373,1.28984 -2.42852,38.53926 -3.15096,42.64542 -0.53044,3.01506 -1.9734,5.18148 -4.11468,6.17775 -0.80701,0.37547 -1.1413,0.43043 -2.8349,0.46609 -1.29021,0.0272 -2.14115,-0.0313 -2.59424,-0.17827 z m -7.8676,-53.83771 c -0.26627,-0.26627 -0.31578,-0.67371 -0.42019,-3.45851 -0.0651,-1.73616 -0.0714,-3.61471 -0.0141,-4.17453 0.3639,-3.55195 2.4226,-6.62582 5.37611,-8.02712 1.91617,-0.90914 2.75928,-1.07835 5.36,-1.07581 2.56714,0.003 3.62818,0.22275 5.51259,1.14429 2.39727,1.17234 4.38419,3.80165 5.05816,6.69352 0.29248,1.25493 0.34437,5.16592 0.0752,5.66883 -0.0867,0.16191 -0.32425,0.33621 -0.52803,0.38735 -0.77982,0.19572 -19.20725,3.14382 -19.65083,3.14382 -0.25691,0 -0.60295,-0.13582 -0.76896,-0.30184 z m -301.45817,-36.0935 c 15.11552,-10.0535 33.84741,-20.12499 52.16,-28.04462 41.47253,-17.93559 87.05439,-28.4851 134.96,-31.23529 8.08336,-0.46405 12.13562,-0.5589 23.92,-0.55991 14.61285,-0.001 21.51906,0.25638 34.32001,1.28027 61.39926,4.91103 120.00506,23.42186 168.32,53.16442 3.3988,2.09228 9.7749,6.1715 10.05831,6.43496 0.0761,0.0707 -1.18394,-0.29944 -2.8,-0.82255 -52.88069,-17.1172 -107.56181,-26.30115 -171.81831,-28.85773 -12.12388,-0.48238 -16.9336,-0.58308 -32.16,-0.67339 -26.61733,-0.15787 -47.55277,0.4888 -71.04001,2.19437 -52.08533,3.78226 -100.29011,12.83846 -143.50319,26.95987 -2.05873,0.67277 -3.85873,1.25927 -4,1.30331 -0.14125,0.044 0.57119,-0.47062 1.58319,-1.14371 z"
       id="path888"
       inkscape:connector-curvature="0" />
  </g>
</svg>
